<?xml version="1.0" encoding="UTF-8" standalone="no"?>
<!-- Created with Inkscape (http://www.inkscape.org/) -->

<svg
   xmlns:dc="http://purl.org/dc/elements/1.1/"
   xmlns:cc="http://creativecommons.org/ns#"
   xmlns:rdf="http://www.w3.org/1999/02/22-rdf-syntax-ns#"
   xmlns:svg="http://www.w3.org/2000/svg"
   xmlns="http://www.w3.org/2000/svg"
   xmlns:sodipodi="http://sodipodi.sourceforge.net/DTD/sodipodi-0.dtd"
   xmlns:inkscape="http://www.inkscape.org/namespaces/inkscape"
   version="1.1"
   id="svg21"
   xml:space="preserve"
   width="819.2547"
   height="206.45734"
   viewBox="0 0 819.2547 206.45734"
   sodipodi:docname="Deviantart.svg"
   inkscape:version="0.92.1 r15371"><metadata
     id="metadata27"><rdf:RDF><cc:Work
         rdf:about=""><dc:format>image/svg+xml</dc:format><dc:type
           rdf:resource="http://purl.org/dc/dcmitype/StillImage" /><dc:title></dc:title></cc:Work></rdf:RDF></metadata><defs
     id="defs25"><clipPath
       clipPathUnits="userSpaceOnUse"
       id="clipPath45"><path
         d="M 0,154.843 H 614.441 V 0 H 0 Z"
         id="path43"
         inkscape:connector-curvature="0" /></clipPath></defs><sodipodi:namedview
     pagecolor="#ffffff"
     bordercolor="#666666"
     borderopacity="1"
     objecttolerance="10"
     gridtolerance="10"
     guidetolerance="10"
     inkscape:pageopacity="0"
     inkscape:pageshadow="2"
     inkscape:window-width="1920"
     inkscape:window-height="1017"
     id="namedview23"
     showgrid="false"
     inkscape:zoom="2"
     inkscape:cx="381.34099"
     inkscape:cy="121.02304"
     inkscape:window-x="-8"
     inkscape:window-y="-8"
     inkscape:window-maximized="1"
     inkscape:current-layer="g29" /><g
     id="g29"
     inkscape:groupmode="layer"
     inkscape:label="Untitled-1"
     transform="matrix(1.3333333,0,0,-1.3333333,0,206.45733)"><g
       id="g104"><g
         transform="translate(95.8257,154.8378)"
         id="g31"><path
           inkscape:connector-curvature="0"
           id="path33"
           style="fill:#05cc47;fill-opacity:1;fill-rule:nonzero;stroke:none"
           d="m 0,0 h -28.144 l -2.81,-2.833 -13.284,-25.315 -4.177,-2.819 h -47.411 v -38.661 h 26.065 l 2.321,-2.808 -28.386,-54.242 v -28.153 h 0.008 28.144 l 2.81,2.833 13.284,25.316 4.177,2.818 H 0.009 v 38.66 h -26.065 l -2.319,2.828 28.384,54.224 V 0 Z" /></g><g
         transform="translate(151.6176,69.6303)"
         id="g35"><path
           inkscape:connector-curvature="0"
           id="path37"
           style="fill:#242627;fill-opacity:1;fill-rule:nonzero;stroke:none"
           d="m 0,0 -36.434,-69.624 h 21.62 l 5.287,10.132 24.412,10e-4 2.416,-10.133 H 38.919 L 22.256,0 Z m 7.218,-27.495 3.691,-15.266 H -0.779 Z" /></g><g
         id="g39"><g
           clip-path="url(#clipPath45)"
           id="g41"><g
             transform="translate(224.5371,37.0815)"
             id="g47"><path
               inkscape:connector-curvature="0"
               id="path49"
               style="fill:#242627;fill-opacity:1;fill-rule:nonzero;stroke:none"
               d="M 0,0 H -9.237 V 14.077 H 0 c 5.628,0 7.766,-2.816 7.766,-7.095 C 7.766,2.814 5.628,0 0,0 m 28.941,7.326 c 0,15.987 -10.813,25.223 -26.015,25.223 h -32.99 v -69.63 h 20.827 v 20.308 h 5.068 l 4.136,0.011 10.084,-20.319 h 21.621 l -12.858,24.568 c 6.307,4.017 10.127,10.826 10.127,19.839" /></g><g
             transform="translate(256.5591,69.6304)"
             id="g51"><path
               inkscape:connector-curvature="0"
               id="path53"
               style="fill:#242627;fill-opacity:1;fill-rule:nonzero;stroke:none"
               d="M 0,0 V -18.458 H 19.68 V -69.63 h 11.858 l 8.954,17.128 v 34.044 H 58.34 L 67.991,0 Z" /></g><path
             inkscape:connector-curvature="0"
             id="path55"
             style="fill:#242627;fill-opacity:1;fill-rule:nonzero;stroke:none"
             d="m 373.24,85.217 h 20.808 v 69.621 H 373.24 Z" /><g
             transform="translate(196.252,154.8032)"
             id="g57"><path
               inkscape:connector-curvature="0"
               id="path59"
               style="fill:#242627;fill-opacity:1;fill-rule:nonzero;stroke:none"
               d="m 0,0 -9.35,-17.851 h 5.742 c 10.25,0 16.739,-6.551 16.739,-16.916 0,-10.244 -6.489,-16.797 -16.739,-16.797 h -6.489 v 32.288 l -20.129,-38.428 v -11.871 h 28.005 c 22.567,0 35.832,13.607 35.832,34.809 C 33.611,-14.265 21.211,-0.871 0,0" /></g><g
             transform="translate(235.3657,85.2173)"
             id="g61"><path
               inkscape:connector-curvature="0"
               id="path63"
               style="fill:#242627;fill-opacity:1;fill-rule:nonzero;stroke:none"
               d="M 0,0 H 53.144 V 18.455 H 20.807 v 7.524 h 29.73 v 17.665 h -29.73 v 7.521 H 53.144 V 69.621 H 0 Z" /></g><g
             transform="translate(325.5059,112.7075)"
             id="g65"><path
               inkscape:connector-curvature="0"
               id="path67"
               style="fill:#242627;fill-opacity:1;fill-rule:nonzero;stroke:none"
               d="m 0,0 -10.086,42.13 h -21.598 l 16.672,-69.618 H 7.206 L 43.673,42.13 H 22.051 Z" /></g><g
             transform="translate(546.4502,154.8428)"
             id="g69"><path
               inkscape:connector-curvature="0"
               id="path71"
               style="fill:#242627;fill-opacity:1;fill-rule:nonzero;stroke:none"
               d="M 0,0 V -18.458 H 19.679 V -69.63 h 11.859 l 8.953,17.128 v 34.044 H 58.34 L 67.99,0 Z" /></g><g
             transform="translate(433.752,112.0767)"
             id="g73"><path
               inkscape:connector-curvature="0"
               id="path75"
               style="fill:#242627;fill-opacity:1;fill-rule:nonzero;stroke:none"
               d="M 0,0 7.985,15.251 11.674,0 Z m 0.81,42.761 -36.443,-69.618 h 21.584 l 5.306,10.143 24.388,10e-4 2.421,-10.144 21.59,-0.002 -16.663,69.62 z" /></g><g
             transform="translate(521.1865,121.8589)"
             id="g77"><path
               inkscape:connector-curvature="0"
               id="path79"
               style="fill:#242627;fill-opacity:1;fill-rule:nonzero;stroke:none"
               d="m 0,0 -23.305,32.979 h -20.521 v -69.621 h 20.802 V -1.284 L 2.775,-36.642 H 20.803 V 32.979 H 0 Z" /></g></g></g></g></g></svg>