<?xml version="1.0" standalone="no"?><!DOCTYPE svg PUBLIC "-//W3C//DTD SVG 1.1//EN" "http://www.w3.org/Graphics/SVG/1.1/DTD/svg11.dtd"><svg viewBox="0 0 452 452" version="1.1" xmlns="http://www.w3.org/2000/svg" xmlns:xlink="http://www.w3.org/1999/xlink" xml:space="preserve" x="0px" y="0px" width="452px" height="452px">	<path d="M 451.5 225.5 C 451.5 352.5 350.5 451.5 225.5 451.5 C 142.5 451.5 43.5 404.5 8.5 289.5 C 4.5 275.5 0.5 248.5 0.5 246.5 L 0.5 205.5 C 18.5 66.5 124.5 0.5 225.5 0.5 C 352.5 0.5 451.5 100.5 451.5 225.5 ZM 335.5 107.5 C 335.5 110.5 334.5 120.5 333.5 126.5 C 329.5 153.5 303.5 190.5 275.5 190.5 C 259.5 190.5 239.5 169.5 235.5 155.5 C 234.5 151.5 231.5 143.5 231.5 141.5 L 231.5 115.5 C 237.5 87.5 254.5 44.5 289.5 44.5 C 327.5 44.5 335.5 87.5 335.5 107.5 ZM 194.5 89.5 C 201.5 100.5 208.5 124.5 208.5 138.5 C 208.5 157.5 196.5 193.5 167.5 193.5 C 123.5 193.5 98.5 131.5 98.5 105.5 C 98.5 86.5 107.5 49.5 139.5 49.5 C 157.5 49.5 182.5 67.5 194.5 89.5 ZM 431.5 198.5 C 431.5 229.5 401.5 278.5 361.5 278.5 C 338.5 278.5 320.5 252.5 320.5 234.5 C 320.5 203.5 343.5 151.5 388.5 151.5 C 419.5 151.5 431.5 177.5 431.5 198.5 ZM 132.5 255.5 C 132.5 268.5 124.5 293.5 106.5 299.5 C 101.5 300.5 94.5 301.5 91.5 301.5 C 47.5 301.5 21.5 252.5 21.5 222.5 C 21.5 200.5 31.5 176.5 61.5 176.5 C 102.5 176.5 132.5 221.5 132.5 255.5 ZM 360.5 347.5 C 360.5 348.5 362.5 349.5 363.5 352.5 C 365.5 357.5 368.5 368.5 368.5 371.5 C 368.5 402.5 325.5 407.5 310.5 407.5 C 279.5 407.5 245.5 392.5 220.5 392.5 C 195.5 392.5 186.5 407.5 153.5 407.5 C 132.5 407.5 102.5 393.5 102.5 366.5 C 102.5 321.5 172.5 231.5 227.5 231.5 C 277.5 231.5 338.5 295.5 360.5 347.5 Z" fill="#ebebeb"/>	<path d="M 132.5 255.5 C 132.5 268.5 124.5 293.5 106.5 299.5 C 101.5 300.5 94.5 301.5 91.5 301.5 C 47.5 301.5 21.5 252.5 21.5 222.5 C 21.5 200.5 31.5 176.5 61.5 176.5 C 102.5 176.5 132.5 221.5 132.5 255.5 Z" fill="#5d4078"/>	<path d="M 194.5 89.5 C 201.5 100.5 208.5 124.5 208.5 138.5 C 208.5 157.5 196.5 193.5 167.5 193.5 C 123.5 193.5 98.5 131.5 98.5 105.5 C 98.5 86.5 107.5 49.5 139.5 49.5 C 157.5 49.5 182.5 67.5 194.5 89.5 Z" fill="#5d4078"/>	<path d="M 335.5 108.5 C 335.5 111.5 334.5 121.5 333.5 127.5 C 329.5 154.5 303.5 191.5 275.5 191.5 C 259.5 191.5 237.1238 169.7279 233.4149 149.0638 C 229.2074 125.6223 231.5 116.5 231.5 116.5 C 238.6223 84.75 254.5 45.5 289.5 45.5 C 327.5 45.5 335.5 88.5 335.5 108.5 Z" fill="#5d4078"/>	<path d="M 431.5 198.5 C 431.5 229.5 401.5 278.5 361.5 278.5 C 338.5 278.5 320.5 252.5 320.5 234.5 C 320.5 203.5 343.5 151.5 388.5 151.5 C 419.5 151.5 431.5 177.5 431.5 198.5 Z" fill="#5d4078"/>	<path d="M 360.5 347.5 C 360.5 348.5 362.5 349.5 363.5 352.5 C 365.5 357.5 368.5 368.5 368.5 371.5 C 368.5 402.5 325.5 407.5 310.5 407.5 C 279.5 407.5 245.5 392.5 220.5 392.5 C 195.5 392.5 186.5 407.5 153.5 407.5 C 132.5 407.5 102.5 393.5 102.5 366.5 C 102.5 321.5 172.5 231.5 227.5 231.5 C 277.5 231.5 338.5 295.5 360.5 347.5 Z" fill="#5d4078"/></svg>