<?xml version="1.0" encoding="utf-8"?>
<!-- Generator: Adobe Illustrator 14.0.0, SVG Export Plug-In . SVG Version: 6.00 Build 43363)  -->
<!DOCTYPE svg PUBLIC "-//W3C//DTD SVG 1.1//EN" "http://www.w3.org/Graphics/SVG/1.1/DTD/svg11.dtd">
<svg version="1.1" id="Calque_1" xmlns="http://www.w3.org/2000/svg" xmlns:xlink="http://www.w3.org/1999/xlink" x="0px" y="0px"
	 width="256px" height="256px" viewBox="0 0 256 256" enable-background="new 0 0 256 256" xml:space="preserve">
<g>
	<g>
		<g>
			<rect x="0.24" y="0.167" fill="#314358" width="255.52" height="256"/>
		</g>
	</g>
	<g>
		<path fill="#FFFFFF" d="M168.08,170.918c-2.969,1.416-8.647,2.648-12.881,2.754c-12.783,0.342-15.264-8.979-15.367-15.736v-49.705
			h32.065V84.055h-31.954V43.382c0,0-23.008,0-23.383,0c-0.385,0-1.057,0.337-1.152,1.192c-1.368,12.448-7.192,34.296-31.416,43.032
			v20.624h16.16v52.167c0,17.863,13.176,43.24,47.959,42.641c11.736-0.201,24.77-5.113,27.648-9.354L168.08,170.918"/>
	</g>
</g>
</svg>
